<svg width="24" height="24" viewBox="0 0 24 24" fill="none" xmlns="http://www.w3.org/2000/svg">
<path d="M3 3C2.17031 3 1.5 3.67031 1.5 4.5V19.5C1.5 20.3297 2.17031 21 3 21H21C21.8297 21 22.5 20.3297 22.5 19.5V4.5C22.5 3.67031 21.8297 3 21 3H3ZM0 4.5C0 2.84531 1.34531 1.5 3 1.5H21C22.6547 1.5 24 2.84531 24 4.5V19.5C24 21.1547 22.6547 22.5 21 22.5H3C1.34531 22.5 0 21.1547 0 19.5V4.5ZM4.5 4.875C4.79837 4.875 5.08452 4.99353 5.2955 5.2045C5.50647 5.41548 5.625 5.70163 5.625 6C5.625 6.29837 5.50647 6.58452 5.2955 6.7955C5.08452 7.00647 4.79837 7.125 4.5 7.125C4.20163 7.125 3.91548 7.00647 3.7045 6.7955C3.49353 6.58452 3.375 6.29837 3.375 6C3.375 5.70163 3.49353 5.41548 3.7045 5.2045C3.91548 4.99353 4.20163 4.875 4.5 4.875ZM7.875 6C7.875 5.70163 7.99353 5.41548 8.2045 5.2045C8.41548 4.99353 8.70163 4.875 9 4.875C9.29837 4.875 9.58452 4.99353 9.7955 5.2045C10.0065 5.41548 10.125 5.70163 10.125 6C10.125 6.29837 10.0065 6.58452 9.7955 6.7955C9.58452 7.00647 9.29837 7.125 9 7.125C8.70163 7.125 8.41548 7.00647 8.2045 6.7955C7.99353 6.58452 7.875 6.29837 7.875 6ZM13.5 4.875C13.7984 4.875 14.0845 4.99353 14.2955 5.2045C14.5065 5.41548 14.625 5.70163 14.625 6C14.625 6.29837 14.5065 6.58452 14.2955 6.7955C14.0845 7.00647 13.7984 7.125 13.5 7.125C13.2016 7.125 12.9155 7.00647 12.7045 6.7955C12.4935 6.58452 12.375 6.29837 12.375 6C12.375 5.70163 12.4935 5.41548 12.7045 5.2045C12.9155 4.99353 13.2016 4.875 13.5 4.875Z" fill="#CACFDD"/>
</svg>
