<svg width="24" height="24" viewBox="0 0 24 24" fill="none" xmlns="http://www.w3.org/2000/svg">
<g clip-path="url(#clip0_358_225)">
<path d="M19.2844 8.22656C19.5609 8.69063 19.5703 9.26719 19.3031 9.73594C19.0359 10.2047 18.5391 10.4953 18 10.4953H9C8.46094 10.4953 7.95937 10.2047 7.69687 9.73594C7.43437 9.26719 7.43906 8.69063 7.71563 8.22656L12.2156 0.726562C12.4828 0.276562 12.975 0 13.5 0C14.025 0 14.5172 0.276562 14.7844 0.726562L19.2844 8.22656ZM13.5 1.5L9 9H18L13.5 1.5ZM22.125 14.25H15.375C15.1687 14.25 15 14.4187 15 14.625V21.375C15 21.5812 15.1687 21.75 15.375 21.75H22.125C22.3312 21.75 22.5 21.5812 22.5 21.375V14.625C22.5 14.4187 22.3312 14.25 22.125 14.25ZM15.375 12.75H22.125C23.1609 12.75 24 13.5891 24 14.625V21.375C24 22.4109 23.1609 23.25 22.125 23.25H15.375C14.3391 23.25 13.5 22.4109 13.5 21.375V14.625C13.5 13.5891 14.3391 12.75 15.375 12.75ZM10.5 18C10.5 17.4091 10.3836 16.8239 10.1575 16.2779C9.93131 15.732 9.59984 15.2359 9.18198 14.818C8.76412 14.4002 8.26804 14.0687 7.72208 13.8425C7.17611 13.6164 6.59095 13.5 6 13.5C5.40905 13.5 4.82389 13.6164 4.27792 13.8425C3.73196 14.0687 3.23588 14.4002 2.81802 14.818C2.40016 15.2359 2.06869 15.732 1.84254 16.2779C1.6164 16.8239 1.5 17.4091 1.5 18C1.5 18.5909 1.6164 19.1761 1.84254 19.7221C2.06869 20.268 2.40016 20.7641 2.81802 21.182C3.23588 21.5998 3.73196 21.9313 4.27792 22.1575C4.82389 22.3836 5.40905 22.5 6 22.5C6.59095 22.5 7.17611 22.3836 7.72208 22.1575C8.26804 21.9313 8.76412 21.5998 9.18198 21.182C9.59984 20.7641 9.93131 20.268 10.1575 19.7221C10.3836 19.1761 10.5 18.5909 10.5 18ZM0 18C0 16.4087 0.632141 14.8826 1.75736 13.7574C2.88258 12.6321 4.4087 12 6 12C7.5913 12 9.11742 12.6321 10.2426 13.7574C11.3679 14.8826 12 16.4087 12 18C12 19.5913 11.3679 21.1174 10.2426 22.2426C9.11742 23.3679 7.5913 24 6 24C4.4087 24 2.88258 23.3679 1.75736 22.2426C0.632141 21.1174 0 19.5913 0 18Z" fill="#CACFDD"/>
</g>
<defs>
<clipPath id="clip0_358_225">
<rect width="24" height="24" fill="white"/>
</clipPath>
</defs>
</svg>
