<svg width="48" height="48" viewBox="0 0 48 48" fill="none" xmlns="http://www.w3.org/2000/svg">
<rect x="1" y="1" width="46" height="46" rx="23" stroke="#CACFDD" stroke-width="2"/>
<path d="M24.002 19.385C21.4481 19.385 19.3881 21.4455 19.3881 24C19.3881 26.5545 21.4481 28.615 24.002 28.615C26.5559 28.615 28.616 26.5545 28.616 24C28.616 21.4455 26.5559 19.385 24.002 19.385ZM24.002 27.0003C22.3516 27.0003 21.0023 25.6548 21.0023 24C21.0023 22.3452 22.3476 20.9997 24.002 20.9997C25.6564 20.9997 27.0017 22.3452 27.0017 24C27.0017 25.6548 25.6524 27.0003 24.002 27.0003ZM29.8809 19.1963C29.8809 19.7947 29.399 20.2727 28.8047 20.2727C28.2064 20.2727 27.7285 19.7907 27.7285 19.1963C27.7285 18.6018 28.2104 18.1198 28.8047 18.1198C29.399 18.1198 29.8809 18.6018 29.8809 19.1963ZM32.9368 20.2887C32.8685 18.8468 32.5392 17.5696 31.4831 16.5172C30.431 15.4649 29.154 15.1356 27.7124 15.0633C26.2267 14.9789 21.7733 14.9789 20.2876 15.0633C18.85 15.1315 17.573 15.4609 16.5169 16.5132C15.4608 17.5655 15.1355 18.8428 15.0632 20.2847C14.9789 21.7708 14.9789 26.2251 15.0632 27.7113C15.1315 29.1532 15.4608 30.4304 16.5169 31.4828C17.573 32.5351 18.846 32.8644 20.2876 32.9367C21.7733 33.0211 26.2267 33.0211 27.7124 32.9367C29.154 32.8685 30.431 32.5391 31.4831 31.4828C32.5352 30.4304 32.8645 29.1532 32.9368 27.7113C33.0211 26.2251 33.0211 21.7749 32.9368 20.2887ZM31.0173 29.3058C30.7041 30.093 30.0977 30.6995 29.3066 31.0168C28.122 31.4868 25.3111 31.3783 24.002 31.3783C22.6929 31.3783 19.878 31.4828 18.6974 31.0168C17.9103 30.7036 17.304 30.0971 16.9867 29.3058C16.5169 28.1209 16.6253 25.3094 16.6253 24C16.6253 22.6906 16.5209 19.875 16.9867 18.6942C17.2999 17.907 17.9063 17.3005 18.6974 16.9832C19.882 16.5132 22.6929 16.6217 24.002 16.6217C25.3111 16.6217 28.126 16.5172 29.3066 16.9832C30.0937 17.2964 30.7001 17.9029 31.0173 18.6942C31.4871 19.8791 31.3787 22.6906 31.3787 24C31.3787 25.3094 31.4871 28.125 31.0173 29.3058Z" fill="#1DB18E"/>
</svg>
