<svg width="48" height="48" viewBox="0 0 48 48" fill="none" xmlns="http://www.w3.org/2000/svg">
<rect x="1" y="1" width="46" height="46" rx="23" stroke="#CACFDD" stroke-width="2"/>
<path d="M19.029 33H15.2971V20.9823H19.029V33ZM17.161 19.343C15.9677 19.343 14.9998 18.3546 14.9998 17.1613C14.9998 16.5881 15.2275 16.0383 15.6328 15.633C16.0381 15.2277 16.5878 15 17.161 15C17.7342 15 18.2839 15.2277 18.6892 15.633C19.0946 16.0383 19.3223 16.5881 19.3223 17.1613C19.3223 18.3546 18.3539 19.343 17.161 19.343ZM32.9961 33H29.2723V27.1499C29.2723 25.7556 29.2442 23.9677 27.332 23.9677C25.3918 23.9677 25.0944 25.4824 25.0944 27.0494V33H21.3666V20.9823H24.9458V22.6216H24.998C25.4962 21.6774 26.7133 20.681 28.529 20.681C32.3059 20.681 33.0002 23.1681 33.0002 26.3985V33H32.9961Z" fill="#1DB18E"/>
</svg>
