<svg width="91" height="45" viewBox="0 0 91 45" fill="none" xmlns="http://www.w3.org/2000/svg">
<g clip-path="url(#clip0_358_37)">
<path d="M23.5224 8.32331C26.0881 10.893 27.3725 14.0202 27.3725 17.7049V22.9755C27.3725 26.6512 26.0881 29.7754 23.5224 32.3452C21.0076 34.9149 17.7533 36.2117 13.7596 36.2355H13.7027C9.66404 36.2355 6.37982 34.9417 3.85005 32.3571C1.28435 29.7993 0 26.6751 0 22.9845V17.7138C0 14.0173 1.28435 10.8901 3.85005 8.33226C6.36485 5.76849 9.61913 4.47767 13.6129 4.45382V4.44189H13.6698C17.6875 4.44189 20.9717 5.7357 23.5224 8.32033V8.32331ZM19.4628 28.3654C19.7502 28.0792 20.0077 27.7662 20.2292 27.4263C20.4508 27.0865 20.6424 26.7407 20.807 26.3889C20.9687 26.0341 21.1064 25.6824 21.2172 25.3276C21.3279 24.9729 21.4207 24.636 21.4956 24.3111C21.6662 23.5449 21.7591 22.7758 21.774 22.0007V18.6529C21.7591 17.8808 21.6662 17.1087 21.4956 16.3425C21.4207 16.0176 21.3279 15.6807 21.2172 15.326C21.1064 14.9712 20.9687 14.6194 20.807 14.2706C20.6453 13.9219 20.4508 13.576 20.2292 13.2362C20.0077 12.8964 19.7532 12.5833 19.4628 12.2971C19.0257 11.841 18.5227 11.4356 17.9539 11.0808C17.7084 10.9258 17.439 10.7768 17.1396 10.6337C16.8402 10.4906 16.5139 10.3594 16.1636 10.2402C15.8133 10.1239 15.4361 10.0285 15.0319 9.95995C14.6278 9.89138 14.2057 9.85263 13.7626 9.84368H13.6728C13.2207 9.84368 12.7956 9.87946 12.3914 9.94802C11.9872 10.0196 11.61 10.112 11.2538 10.2282C10.8975 10.3475 10.5682 10.4787 10.2658 10.6247C9.96342 10.7708 9.68799 10.9228 9.44549 11.0779C8.86768 11.4386 8.35873 11.847 7.91565 12.3031C7.62824 12.5893 7.37077 12.9023 7.14923 13.2362C6.92769 13.5701 6.73608 13.9159 6.57142 14.2706C6.40976 14.6254 6.27204 14.9772 6.16127 15.3319C6.0505 15.6867 5.95769 16.0235 5.88285 16.3485C5.7122 17.1146 5.61939 17.8838 5.60442 18.6589V22.0186C5.61939 22.7996 5.7122 23.5688 5.88285 24.3289C5.95769 24.6539 6.0505 24.9908 6.16127 25.3455C6.27204 25.7003 6.40976 26.052 6.57142 26.4008C6.73309 26.7496 6.92769 27.0924 7.14923 27.4293C7.37077 27.7632 7.62525 28.0762 7.91565 28.3624C8.35873 28.8275 8.86469 29.2359 9.43651 29.5876C9.682 29.7427 9.95144 29.8947 10.2508 30.0408C10.5502 30.1868 10.8735 30.318 11.2208 30.4343C11.5681 30.5476 11.9423 30.643 12.3465 30.7175C12.7507 30.792 13.1728 30.8278 13.6159 30.8278V30.8159H13.6937C14.1458 30.8159 14.5709 30.7801 14.9751 30.7115C15.3792 30.64 15.7564 30.5505 16.1127 30.4343C16.469 30.321 16.7983 30.1898 17.1067 30.0408C17.415 29.8947 17.6905 29.7427 17.933 29.5876C18.5108 29.2329 19.0197 28.8245 19.4628 28.3624V28.3654Z" fill="#FF4242"/>
<path d="M38.3837 24.0703H35.3869V29.4185C35.3869 30.3009 35.306 31.07 35.1474 31.7169C34.9887 32.3638 34.7761 32.9183 34.5157 33.3744C34.2522 33.8305 33.9528 34.2032 33.6175 34.4894C33.2822 34.7755 32.9379 35.0051 32.5906 35.175C31.7703 35.5715 30.8423 35.7265 29.8064 35.6401V5.00012H44.1528C45.4311 5.00012 46.5867 5.15514 47.6196 5.46518C48.6525 5.77521 49.5686 6.18065 50.3709 6.68744C51.1733 7.19125 51.8648 7.76958 52.4456 8.41649C53.0264 9.06339 53.5024 9.7252 53.8767 10.3989C54.2509 11.0727 54.5263 11.7345 54.703 12.3814C54.8796 13.0283 54.9694 13.6066 54.9694 14.1164C54.9694 14.8676 54.9095 15.5652 54.7928 16.2032C54.673 16.8441 54.4964 17.4493 54.2539 18.0157C54.0144 18.5821 53.712 19.1217 53.3498 19.6344C52.9875 20.1472 52.5654 20.645 52.0834 21.131C50.8409 22.3473 49.353 23.179 47.6226 23.6291L47.5567 23.65L55.5682 35.2406H48.5896L42.7756 26.3479C42.569 25.9276 42.2726 25.549 41.8894 25.2091C41.7188 25.069 41.5242 24.9319 41.3086 24.7948C41.0901 24.6576 40.8356 24.5384 40.5482 24.4311C40.2608 24.3237 39.9375 24.2373 39.5782 24.1717C39.219 24.1061 38.8208 24.0733 38.3867 24.0733L38.3837 24.0703ZM49.3919 14.1164C49.3919 13.8719 49.359 13.6096 49.2931 13.3264C49.2273 13.0432 49.1105 12.76 48.9429 12.4798C48.7752 12.1995 48.5537 11.9282 48.2782 11.6689C47.9998 11.4065 47.6525 11.177 47.2364 10.9773C46.8173 10.7775 46.3233 10.6195 45.7485 10.4973C45.1736 10.3751 44.506 10.3155 43.7456 10.3155H35.3899V16.6116C35.5006 16.9067 35.6563 17.1631 35.8569 17.3807C36.0575 17.5983 36.282 17.7832 36.5335 17.9382C36.785 18.0932 37.0484 18.2184 37.3269 18.3138C37.6053 18.4092 37.8837 18.4867 38.1651 18.5463C38.8088 18.6775 39.5094 18.7341 40.2638 18.7133H43.7486C44.6797 18.7133 45.5 18.5791 46.2065 18.3108C46.9131 18.0425 47.5088 17.6639 47.9998 17.178C48.2303 16.9484 48.4309 16.7278 48.6046 16.5162C48.7782 16.3015 48.9249 16.0809 49.0417 15.8484C49.1584 15.6159 49.2482 15.3625 49.3081 15.0852C49.368 14.808 49.3979 14.486 49.3979 14.1194L49.3919 14.1164Z" fill="#FF4242"/>
<path d="M68.5913 0L59.9003 22.6565L64.1485 25.4707L68.8218 12.634L72.5102 23.1037H66.31L66.0855 27.2862L69.8337 27.2325L76.8363 22.1765L68.5913 0Z" fill="#FF4242"/>
<path d="M78.7673 29.1941L78.7463 29.2031L78.3122 28.0375L74.9861 30.4611L75.5819 32.1365L75.6896 32.4436L76.1776 33.797C76.462 34.5065 76.8422 35.1385 77.1716 35.6751C77.5009 36.2117 77.8392 36.6768 78.1865 37.0703C78.5338 37.4638 78.881 37.7917 79.2283 38.057C79.5756 38.3223 79.9109 38.54 80.2283 38.7129C80.9797 39.1153 81.827 39.4403 82.5844 39.476L78.7673 29.1941Z" fill="#FF4242"/>
<path d="M91 17.8181H44.8353L59.1308 27.8943L53.7779 45L91 17.8181ZM78.9708 21.6578L61.5049 34.1189L63.9838 26.4485L56.9633 21.6578H78.9678H78.9708Z" fill="#1DB18E"/>
</g>
<defs>
<clipPath id="clip0_358_37">
<rect width="91" height="45" fill="white"/>
</clipPath>
</defs>
</svg>
