<svg width="48" height="48" viewBox="0 0 48 48" fill="none" xmlns="http://www.w3.org/2000/svg">
<rect x="1" y="1" width="46" height="46" rx="23" stroke="#CACFDD" stroke-width="2"/>
<path d="M31.8747 22.3815C30.3265 22.3852 28.8163 21.9024 27.5574 21.0013V27.286C27.557 28.45 27.2012 29.5861 26.5377 30.5425C25.8741 31.4988 24.9344 32.2298 23.8442 32.6376C22.754 33.0455 21.5653 33.1108 20.4369 32.8248C19.3086 32.5388 18.2945 31.9152 17.5302 31.0373C16.7659 30.1594 16.2878 29.069 16.1599 27.9121C16.032 26.7551 16.2603 25.5867 16.8144 24.563C17.3684 23.5394 18.2218 22.7092 19.2604 22.1837C20.299 21.6581 21.4733 21.4621 22.6262 21.622V24.7829C22.0986 24.617 21.5321 24.622 21.0075 24.7972C20.4829 24.9725 20.0271 25.309 19.7052 25.7587C19.3832 26.2085 19.2116 26.7484 19.2149 27.3015C19.2182 27.8546 19.3961 28.3925 19.7233 28.8384C20.0505 29.2843 20.5102 29.6155 21.0369 29.7845C21.5635 29.9536 22.1301 29.9519 22.6557 29.7797C23.1813 29.6076 23.639 29.2737 23.9636 28.8259C24.2882 28.378 24.4629 27.8391 24.4629 27.286V15H27.5574C27.5553 15.2613 27.5772 15.5223 27.6228 15.7796C27.7304 16.354 27.954 16.9005 28.2799 17.3855C28.6059 17.8706 29.0274 18.284 29.5186 18.6006C30.2175 19.0627 31.0368 19.309 31.8747 19.3088V22.3815Z" fill="#1DB18E"/>
</svg>
