<svg width="48" height="48" viewBox="0 0 48 48" fill="none" xmlns="http://www.w3.org/2000/svg">
<rect x="1" y="1" width="46" height="46" rx="23" stroke="#CACFDD" stroke-width="2"/>
<path d="M33.5331 19.4859C33.5483 19.6828 33.5483 19.8797 33.5483 20.0766C33.5483 26.0812 28.5991 33 19.5533 33C16.7665 33 14.1777 32.2547 12 30.961C12.396 31.0031 12.7766 31.0172 13.1878 31.0172C15.4873 31.0172 17.6041 30.3 19.2944 29.0766C17.132 29.0344 15.3198 27.7266 14.6954 25.9266C15 25.9687 15.3046 25.9969 15.6244 25.9969C16.066 25.9969 16.5077 25.9406 16.9188 25.8422C14.665 25.4203 12.9746 23.5922 12.9746 21.3844V21.3281C13.6294 21.6656 14.3909 21.8766 15.1979 21.9047C13.873 21.089 13.0051 19.6969 13.0051 18.1218C13.0051 17.2781 13.2487 16.5047 13.6751 15.8297C16.0964 18.5859 19.736 20.3859 23.8172 20.5828C23.7411 20.2453 23.6954 19.8938 23.6954 19.5422C23.6954 17.039 25.8883 15 28.6142 15C30.0304 15 31.3096 15.5484 32.2081 16.4344C33.3198 16.2375 34.3858 15.8578 35.33 15.3375C34.9644 16.3922 34.1878 17.2782 33.1675 17.8406C34.1574 17.7422 35.1168 17.489 36 17.1375C35.3301 18.0375 34.4924 18.839 33.5331 19.4859Z" fill="#1DB18E"/>
</svg>
